# xmcd CD database file
#
# Track frame offsets:
#	150
#	7032
#	20397
#	30165
#	43717
#	61855
#	69080
#	80687
#	95742
#	103992
#	110272
#	126130
#	141472
#	148370
#	172545
#	198287
#	209260
#	229440
#	244717
#	256507
#	272420
#
# Disc length: 3715 seconds
#
# Revision: 0
# Processed by: cddbd v1.4PL0 Copyright (c) Steve Scherf et al.
# Submitted via: CDex 1.50
#
DISCID=1e0e8115
DTITLE=Philippe Gélinas - Ménétrier
DYEAR=2003
DGENRE=Jazz
TTITLE0=Ecco la primavera
TTITLE1=edi Beo Thu
TTITLE2=Sumer is icumen in
TTITLE3=Saltarello
TTITLE4=Air irlandais
TTITLE5=Li Maus d'amer
TTITLE6=Stntipes
TTITLE7=Chanonetta Tedesca
TTITLE8=Clausula Domino
TTITLE9=Rondel du renouveau
TTITLE10=Tourdion
TTITLE11=Margot
TTITLE12=Charivari
TTITLE13=J'ai vu le cerf
TTITLE14=Jean de Nivelle
TTITLE15=Suite de danses
TTITLE16=Greensleeves
TTITLE17=Mignonne allons voir si la rose
TTITLE18=Daca bailemos Carillo Propinan de Melyor
TTITLE19=Olivier Basselin
TTITLE20=Ballade
EXTD=YEAR: 2003
EXTT0=
EXTT1=
EXTT2=
EXTT3=
EXTT4=
EXTT5=
EXTT6=
EXTT7=
EXTT8=
EXTT9=
EXTT10=
EXTT11=
EXTT12=
EXTT13=
EXTT14=
EXTT15=
EXTT16=
EXTT17=
EXTT18=
EXTT19=
EXTT20=
PLAYORDER=
